<svg xmlns="http://www.w3.org/2000/svg" version="1.1" xmlns:xlink="http://www.w3.org/1999/xlink" xmlns:svgjs="http://svgjs.dev/svgjs" viewBox="0 0 800 800"><g fill="none" stroke-width="3" stroke="hsl(265, 55%, 20%)" stroke-linecap="round"><line x1="215" y1="400" x2="585" y2="400" transform="rotate(0, 400, 400)" opacity="0.27"></line><line x1="170.5" y1="400" x2="629.5" y2="400" transform="rotate(4, 400, 400)" opacity="0.83"></line><line x1="480" y1="400" x2="320" y2="400" transform="rotate(8, 400, 400)" opacity="0.28"></line><line x1="594" y1="400" x2="206" y2="400" transform="rotate(12, 400, 400)" opacity="0.63"></line><line x1="36" y1="400" x2="764" y2="400" transform="rotate(16, 400, 400)" opacity="0.55"></line><line x1="510.5" y1="400" x2="289.5" y2="400" transform="rotate(20, 400, 400)" opacity="0.13"></line><line x1="488.5" y1="400" x2="311.5" y2="400" transform="rotate(24, 400, 400)" opacity="0.80"></line><line x1="286.5" y1="400" x2="513.5" y2="400" transform="rotate(28, 400, 400)" opacity="0.55"></line><line x1="678.5" y1="400" x2="121.5" y2="400" transform="rotate(32, 400, 400)" opacity="0.48"></line><line x1="719.5" y1="400" x2="80.5" y2="400" transform="rotate(36, 400, 400)" opacity="0.36"></line><line x1="85.5" y1="400" x2="714.5" y2="400" transform="rotate(40, 400, 400)" opacity="0.85"></line><line x1="697" y1="400" x2="103" y2="400" transform="rotate(44, 400, 400)" opacity="0.26"></line><line x1="484" y1="400" x2="316" y2="400" transform="rotate(48, 400, 400)" opacity="0.34"></line><line x1="56.5" y1="400" x2="743.5" y2="400" transform="rotate(52, 400, 400)" opacity="0.56"></line><line x1="548" y1="400" x2="252" y2="400" transform="rotate(56, 400, 400)" opacity="0.59"></line><line x1="419.5" y1="400" x2="380.5" y2="400" transform="rotate(60, 400, 400)" opacity="0.39"></line><line x1="108" y1="400" x2="692" y2="400" transform="rotate(64, 400, 400)" opacity="0.58"></line><line x1="157" y1="400" x2="643" y2="400" transform="rotate(68, 400, 400)" opacity="0.74"></line><line x1="62" y1="400" x2="738" y2="400" transform="rotate(72, 400, 400)" opacity="0.54"></line><line x1="105.5" y1="400" x2="694.5" y2="400" transform="rotate(76, 400, 400)" opacity="0.28"></line><line x1="534" y1="400" x2="266" y2="400" transform="rotate(80, 400, 400)" opacity="0.78"></line><line x1="182" y1="400" x2="618" y2="400" transform="rotate(84, 400, 400)" opacity="0.66"></line><line x1="233.5" y1="400" x2="566.5" y2="400" transform="rotate(88, 400, 400)" opacity="0.87"></line><line x1="560" y1="400" x2="240" y2="400" transform="rotate(92, 400, 400)" opacity="0.23"></line><line x1="255.5" y1="400" x2="544.5" y2="400" transform="rotate(96, 400, 400)" opacity="0.16"></line><line x1="634" y1="400" x2="166" y2="400" transform="rotate(100, 400, 400)" opacity="0.07"></line><line x1="416" y1="400" x2="384" y2="400" transform="rotate(104, 400, 400)" opacity="0.93"></line><line x1="728" y1="400" x2="72" y2="400" transform="rotate(108, 400, 400)" opacity="0.60"></line><line x1="160" y1="400" x2="640" y2="400" transform="rotate(112, 400, 400)" opacity="0.09"></line><line x1="342" y1="400" x2="458" y2="400" transform="rotate(116, 400, 400)" opacity="0.67"></line><line x1="366.5" y1="400" x2="433.5" y2="400" transform="rotate(120, 400, 400)" opacity="0.32"></line><line x1="549.5" y1="400" x2="250.5" y2="400" transform="rotate(124, 400, 400)" opacity="0.29"></line><line x1="55" y1="400" x2="745" y2="400" transform="rotate(128, 400, 400)" opacity="0.09"></line><line x1="470" y1="400" x2="330" y2="400" transform="rotate(132, 400, 400)" opacity="0.88"></line><line x1="197" y1="400" x2="603" y2="400" transform="rotate(136, 400, 400)" opacity="0.79"></line><line x1="667.5" y1="400" x2="132.5" y2="400" transform="rotate(140, 400, 400)" opacity="0.27"></line><line x1="96.5" y1="400" x2="703.5" y2="400" transform="rotate(144, 400, 400)" opacity="0.22"></line><line x1="47.5" y1="400" x2="752.5" y2="400" transform="rotate(148, 400, 400)" opacity="0.13"></line><line x1="47" y1="400" x2="753" y2="400" transform="rotate(152, 400, 400)" opacity="0.07"></line><line x1="126" y1="400" x2="674" y2="400" transform="rotate(156, 400, 400)" opacity="0.52"></line><line x1="114.5" y1="400" x2="685.5" y2="400" transform="rotate(160, 400, 400)" opacity="0.74"></line><line x1="266" y1="400" x2="534" y2="400" transform="rotate(164, 400, 400)" opacity="0.16"></line><line x1="565.5" y1="400" x2="234.5" y2="400" transform="rotate(168, 400, 400)" opacity="0.73"></line><line x1="319" y1="400" x2="481" y2="400" transform="rotate(172, 400, 400)" opacity="0.20"></line><line x1="174.5" y1="400" x2="625.5" y2="400" transform="rotate(176, 400, 400)" opacity="0.92"></line><line x1="605.5" y1="400" x2="194.5" y2="400" transform="rotate(180, 400, 400)" opacity="0.10"></line><line x1="464" y1="400" x2="336" y2="400" transform="rotate(184, 400, 400)" opacity="0.18"></line><line x1="146.5" y1="400" x2="653.5" y2="400" transform="rotate(188, 400, 400)" opacity="0.55"></line><line x1="218.5" y1="400" x2="581.5" y2="400" transform="rotate(192, 400, 400)" opacity="0.61"></line><line x1="342" y1="400" x2="458" y2="400" transform="rotate(196, 400, 400)" opacity="0.45"></line><line x1="590" y1="400" x2="210" y2="400" transform="rotate(200, 400, 400)" opacity="0.87"></line><line x1="332.5" y1="400" x2="467.5" y2="400" transform="rotate(204, 400, 400)" opacity="0.81"></line><line x1="297" y1="400" x2="503" y2="400" transform="rotate(208, 400, 400)" opacity="0.14"></line><line x1="106.5" y1="400" x2="693.5" y2="400" transform="rotate(212, 400, 400)" opacity="0.11"></line><line x1="353.5" y1="400" x2="446.5" y2="400" transform="rotate(216, 400, 400)" opacity="0.65"></line><line x1="499.5" y1="400" x2="300.5" y2="400" transform="rotate(220, 400, 400)" opacity="0.66"></line><line x1="529.5" y1="400" x2="270.5" y2="400" transform="rotate(224, 400, 400)" opacity="0.71"></line><line x1="457" y1="400" x2="343" y2="400" transform="rotate(228, 400, 400)" opacity="0.10"></line><line x1="369.5" y1="400" x2="430.5" y2="400" transform="rotate(232, 400, 400)" opacity="0.99"></line><line x1="498" y1="400" x2="302" y2="400" transform="rotate(236, 400, 400)" opacity="0.14"></line><line x1="433.5" y1="400" x2="366.5" y2="400" transform="rotate(240, 400, 400)" opacity="0.69"></line><line x1="503" y1="400" x2="297" y2="400" transform="rotate(244, 400, 400)" opacity="0.55"></line><line x1="369" y1="400" x2="431" y2="400" transform="rotate(248, 400, 400)" opacity="0.09"></line><line x1="526" y1="400" x2="274" y2="400" transform="rotate(252, 400, 400)" opacity="0.96"></line><line x1="414.5" y1="400" x2="385.5" y2="400" transform="rotate(256, 400, 400)" opacity="0.39"></line><line x1="509" y1="400" x2="291" y2="400" transform="rotate(260, 400, 400)" opacity="0.27"></line><line x1="707" y1="400" x2="93" y2="400" transform="rotate(264, 400, 400)" opacity="0.41"></line><line x1="740.5" y1="400" x2="59.5" y2="400" transform="rotate(268, 400, 400)" opacity="0.71"></line><line x1="139" y1="400" x2="661" y2="400" transform="rotate(272, 400, 400)" opacity="0.74"></line><line x1="491" y1="400" x2="309" y2="400" transform="rotate(276, 400, 400)" opacity="0.66"></line><line x1="690" y1="400" x2="110" y2="400" transform="rotate(280, 400, 400)" opacity="0.98"></line><line x1="499.5" y1="400" x2="300.5" y2="400" transform="rotate(284, 400, 400)" opacity="0.21"></line><line x1="712.5" y1="400" x2="87.5" y2="400" transform="rotate(288, 400, 400)" opacity="0.63"></line><line x1="75.5" y1="400" x2="724.5" y2="400" transform="rotate(292, 400, 400)" opacity="0.99"></line><line x1="148" y1="400" x2="652" y2="400" transform="rotate(296, 400, 400)" opacity="0.82"></line><line x1="124" y1="400" x2="676" y2="400" transform="rotate(300, 400, 400)" opacity="0.90"></line><line x1="727" y1="400" x2="73" y2="400" transform="rotate(304, 400, 400)" opacity="0.76"></line><line x1="38.5" y1="400" x2="761.5" y2="400" transform="rotate(308, 400, 400)" opacity="0.16"></line><line x1="294" y1="400" x2="506" y2="400" transform="rotate(312, 400, 400)" opacity="0.31"></line><line x1="674" y1="400" x2="126" y2="400" transform="rotate(316, 400, 400)" opacity="0.38"></line><line x1="463" y1="400" x2="337" y2="400" transform="rotate(320, 400, 400)" opacity="0.46"></line><line x1="63.5" y1="400" x2="736.5" y2="400" transform="rotate(324, 400, 400)" opacity="0.11"></line><line x1="226" y1="400" x2="574" y2="400" transform="rotate(328, 400, 400)" opacity="0.95"></line><line x1="720.5" y1="400" x2="79.5" y2="400" transform="rotate(332, 400, 400)" opacity="0.25"></line><line x1="436.5" y1="400" x2="363.5" y2="400" transform="rotate(336, 400, 400)" opacity="0.52"></line><line x1="720" y1="400" x2="80" y2="400" transform="rotate(340, 400, 400)" opacity="0.54"></line><line x1="501" y1="400" x2="299" y2="400" transform="rotate(344, 400, 400)" opacity="0.57"></line><line x1="412.5" y1="400" x2="387.5" y2="400" transform="rotate(348, 400, 400)" opacity="0.40"></line></g></svg>