<svg xmlns="http://www.w3.org/2000/svg" version="1.1" xmlns:xlink="http://www.w3.org/1999/xlink" xmlns:svgjs="http://svgjs.dev/svgjs" viewBox="0 0 800 800"><rect width="100%" height="100%" fill="hsl(0, 0%, 0%)"></rect><g fill="hsl(0, 0%, 53%)"><rect width="46" height="1" x="9" y="504.5" rx="0.5" transform="rotate(130, 32, 505)" opacity="0.80"></rect><rect width="206" height="1" x="663" y="520.5" rx="0.5" transform="rotate(130, 766, 521)" opacity="0.47"></rect><rect width="582" height="1" x="454" y="331.5" rx="0.5" transform="rotate(130, 745, 332)" opacity="0.88"></rect><rect width="87" height="1" x="632.5" y="553.5" rx="0.5" transform="rotate(130, 676, 554)" opacity="0.97"></rect><rect width="463" height="1" x="92.5" y="492.5" rx="0.5" transform="rotate(130, 324, 493)" opacity="0.99"></rect><rect width="443" height="1" x="-0.5" y="117.5" rx="0.5" transform="rotate(130, 221, 118)" opacity="0.64"></rect><rect width="541" height="1" x="486.5" y="434.5" rx="0.5" transform="rotate(130, 757, 435)" opacity="0.22"></rect><rect width="392" height="1" x="-135" y="565.5" rx="0.5" transform="rotate(130, 61, 566)" opacity="0.57"></rect><rect width="354" height="1" x="300" y="769.5" rx="0.5" transform="rotate(130, 477, 770)" opacity="0.54"></rect><rect width="176" height="1" x="118" y="210.5" rx="0.5" transform="rotate(130, 206, 211)" opacity="0.64"></rect><rect width="44" height="1" x="21" y="415.5" rx="0.5" transform="rotate(130, 43, 416)" opacity="0.71"></rect><rect width="71" height="1" x="5.5" y="95.5" rx="0.5" transform="rotate(130, 41, 96)" opacity="0.86"></rect><rect width="144" height="1" x="342" y="536.5" rx="0.5" transform="rotate(130, 414, 537)" opacity="0.76"></rect><rect width="61" height="1" x="444.5" y="81.5" rx="0.5" transform="rotate(130, 475, 82)" opacity="0.56"></rect><rect width="383" height="1" x="99.5" y="211.5" rx="0.5" transform="rotate(130, 291, 212)" opacity="0.96"></rect><rect width="109" height="1" x="351.5" y="172.5" rx="0.5" transform="rotate(130, 406, 173)" opacity="0.63"></rect><rect width="343" height="1" x="600.5" y="716.5" rx="0.5" transform="rotate(130, 772, 717)" opacity="0.18"></rect><rect width="73" height="1" x="673.5" y="595.5" rx="0.5" transform="rotate(130, 710, 596)" opacity="0.89"></rect><rect width="291" height="1" x="138.5" y="408.5" rx="0.5" transform="rotate(130, 284, 409)" opacity="0.54"></rect><rect width="285" height="1" x="570.5" y="509.5" rx="0.5" transform="rotate(130, 713, 510)" opacity="0.21"></rect><rect width="294" height="1" x="403" y="479.5" rx="0.5" transform="rotate(130, 550, 480)" opacity="0.95"></rect><rect width="163" height="1" x="425.5" y="529.5" rx="0.5" transform="rotate(130, 507, 530)" opacity="0.21"></rect><rect width="95" height="1" x="390.5" y="468.5" rx="0.5" transform="rotate(130, 438, 469)" opacity="0.29"></rect><rect width="387" height="1" x="148.5" y="646.5" rx="0.5" transform="rotate(130, 342, 647)" opacity="0.91"></rect><rect width="141" height="1" x="494.5" y="760.5" rx="0.5" transform="rotate(130, 565, 761)" opacity="0.85"></rect><rect width="637" height="1" x="-34.5" y="721.5" rx="0.5" transform="rotate(130, 284, 722)" opacity="0.66"></rect><rect width="576" height="1" x="-55" y="608.5" rx="0.5" transform="rotate(130, 233, 609)" opacity="0.14"></rect><rect width="75" height="1" x="341.5" y="754.5" rx="0.5" transform="rotate(130, 379, 755)" opacity="0.45"></rect><rect width="141" height="1" x="422.5" y="452.5" rx="0.5" transform="rotate(130, 493, 453)" opacity="0.27"></rect><rect width="197" height="1" x="30.5" y="177.5" rx="0.5" transform="rotate(130, 129, 178)" opacity="0.40"></rect><rect width="613" height="1" x="248.5" y="654.5" rx="0.5" transform="rotate(130, 555, 655)" opacity="0.33"></rect><rect width="61" height="1" x="606.5" y="455.5" rx="0.5" transform="rotate(130, 637, 456)" opacity="0.31"></rect><rect width="522" height="1" x="-225" y="325.5" rx="0.5" transform="rotate(130, 36, 326)" opacity="0.26"></rect><rect width="500" height="1" x="51" y="38.5" rx="0.5" transform="rotate(130, 301, 39)" opacity="0.79"></rect><rect width="376" height="1" x="206" y="400.5" rx="0.5" transform="rotate(130, 394, 401)" opacity="0.64"></rect><rect width="371" height="1" x="416.5" y="500.5" rx="0.5" transform="rotate(130, 602, 501)" opacity="0.32"></rect><rect width="92" height="1" x="408" y="401.5" rx="0.5" transform="rotate(130, 454, 402)" opacity="0.43"></rect><rect width="191" height="1" x="640.5" y="655.5" rx="0.5" transform="rotate(130, 736, 656)" opacity="0.53"></rect><rect width="334" height="1" x="181" y="577.5" rx="0.5" transform="rotate(130, 348, 578)" opacity="0.71"></rect><rect width="424" height="1" x="21" y="435.5" rx="0.5" transform="rotate(130, 233, 436)" opacity="0.07"></rect><rect width="169" height="1" x="-22.5" y="638.5" rx="0.5" transform="rotate(130, 62, 639)" opacity="0.74"></rect><rect width="111" height="1" x="605.5" y="384.5" rx="0.5" transform="rotate(130, 661, 385)" opacity="0.94"></rect><rect width="495" height="1" x="267.5" y="341.5" rx="0.5" transform="rotate(130, 515, 342)" opacity="0.99"></rect><rect width="97" height="1" x="-3.5" y="155.5" rx="0.5" transform="rotate(130, 45, 156)" opacity="0.17"></rect><rect width="146" height="1" x="562" y="572.5" rx="0.5" transform="rotate(130, 635, 573)" opacity="0.55"></rect><rect width="252" height="1" x="153" y="538.5" rx="0.5" transform="rotate(130, 279, 539)" opacity="0.19"></rect><rect width="621" height="1" x="237.5" y="44.5" rx="0.5" transform="rotate(130, 548, 45)" opacity="0.25"></rect><rect width="78" height="1" x="684" y="759.5" rx="0.5" transform="rotate(130, 723, 760)" opacity="0.90"></rect><rect width="85" height="1" x="343.5" y="476.5" rx="0.5" transform="rotate(130, 386, 477)" opacity="0.19"></rect><rect width="61" height="1" x="81.5" y="475.5" rx="0.5" transform="rotate(130, 112, 476)" opacity="0.42"></rect><rect width="611" height="1" x="-142.5" y="687.5" rx="0.5" transform="rotate(130, 163, 688)" opacity="0.47"></rect><rect width="400" height="1" x="200" y="50.5" rx="0.5" transform="rotate(130, 400, 51)" opacity="0.36"></rect><rect width="393" height="1" x="441.5" y="741.5" rx="0.5" transform="rotate(130, 638, 742)" opacity="0.54"></rect><rect width="677" height="1" x="172.5" y="212.5" rx="0.5" transform="rotate(130, 511, 213)" opacity="0.59"></rect><rect width="392" height="1" x="119" y="353.5" rx="0.5" transform="rotate(130, 315, 354)" opacity="0.98"></rect><rect width="205" height="1" x="-31.5" y="768.5" rx="0.5" transform="rotate(130, 71, 769)" opacity="0.67"></rect><rect width="449" height="1" x="350.5" y="408.5" rx="0.5" transform="rotate(130, 575, 409)" opacity="0.65"></rect><rect width="339" height="1" x="238.5" y="265.5" rx="0.5" transform="rotate(130, 408, 266)" opacity="0.93"></rect><rect width="347" height="1" x="203.5" y="341.5" rx="0.5" transform="rotate(130, 377, 342)" opacity="0.25"></rect><rect width="70" height="1" x="409" y="330.5" rx="0.5" transform="rotate(130, 444, 331)" opacity="0.09"></rect><rect width="312" height="1" x="269" y="668.5" rx="0.5" transform="rotate(130, 425, 669)" opacity="0.08"></rect><rect width="548" height="1" x="-199" y="41.5" rx="0.5" transform="rotate(130, 75, 42)" opacity="0.76"></rect><rect width="82" height="1" x="455" y="704.5" rx="0.5" transform="rotate(130, 496, 705)" opacity="0.94"></rect><rect width="288" height="1" x="323" y="595.5" rx="0.5" transform="rotate(130, 467, 596)" opacity="0.68"></rect><rect width="422" height="1" x="449" y="41.5" rx="0.5" transform="rotate(130, 660, 42)" opacity="0.31"></rect><rect width="328" height="1" x="151" y="277.5" rx="0.5" transform="rotate(130, 315, 278)" opacity="0.89"></rect><rect width="377" height="1" x="-143.5" y="230.5" rx="0.5" transform="rotate(130, 45, 231)" opacity="0.71"></rect><rect width="135" height="1" x="-24.5" y="707.5" rx="0.5" transform="rotate(130, 43, 708)" opacity="0.08"></rect><rect width="118" height="1" x="546" y="289.5" rx="0.5" transform="rotate(130, 605, 290)" opacity="0.10"></rect><rect width="414" height="1" x="-9" y="766.5" rx="0.5" transform="rotate(130, 198, 767)" opacity="0.24"></rect><rect width="51" height="1" x="748.5" y="589.5" rx="0.5" transform="rotate(130, 774, 590)" opacity="0.24"></rect><rect width="604" height="1" x="-153" y="573.5" rx="0.5" transform="rotate(130, 149, 574)" opacity="0.51"></rect><rect width="496" height="1" x="515" y="70.5" rx="0.5" transform="rotate(130, 763, 71)" opacity="0.90"></rect><rect width="644" height="1" x="273" y="143.5" rx="0.5" transform="rotate(130, 595, 144)" opacity="0.99"></rect><rect width="115" height="1" x="291.5" y="429.5" rx="0.5" transform="rotate(130, 349, 430)" opacity="0.54"></rect><rect width="198" height="1" x="622" y="229.5" rx="0.5" transform="rotate(130, 721, 230)" opacity="0.23"></rect><rect width="259" height="1" x="545.5" y="481.5" rx="0.5" transform="rotate(130, 675, 482)" opacity="0.43"></rect><rect width="405" height="1" x="-57.5" y="394.5" rx="0.5" transform="rotate(130, 145, 395)" opacity="0.98"></rect><rect width="124" height="1" x="510" y="571.5" rx="0.5" transform="rotate(130, 572, 572)" opacity="0.17"></rect><rect width="387" height="1" x="6.5" y="497.5" rx="0.5" transform="rotate(130, 200, 498)" opacity="0.97"></rect><rect width="591" height="1" x="407.5" y="139.5" rx="0.5" transform="rotate(130, 703, 140)" opacity="0.60"></rect><rect width="51" height="1" x="156.5" y="44.5" rx="0.5" transform="rotate(130, 182, 45)" opacity="0.73"></rect><rect width="803" height="1" x="-184.5" y="318.5" rx="0.5" transform="rotate(130, 217, 319)" opacity="0.21"></rect><rect width="109" height="1" x="589.5" y="650.5" rx="0.5" transform="rotate(130, 644, 651)" opacity="0.96"></rect><rect width="69" height="1" x="288.5" y="125.5" rx="0.5" transform="rotate(130, 323, 126)" opacity="0.92"></rect><rect width="177" height="1" x="28.5" y="300.5" rx="0.5" transform="rotate(130, 117, 301)" opacity="0.52"></rect></g></svg>