<svg class="svg-icon" style="width: 1em; height: 1em;vertical-align: middle;fill: currentColor;overflow: hidden;" viewBox="0 0 1024 1024" version="1.1" xmlns="http://www.w3.org/2000/svg"><path d="M74 84h876c5.5 0 10-4.5 10-10s-4.5-10-10-10H74c-5.5 0-10 4.5-10 10s4.5 10 10 10zM766 502c-5.5 0-10 4.5-10 10s4.5 10 10 10h103c5.5 0 10-4.5 10-10s-4.5-10-10-10H766zM74 522h600c5.5 0 10-4.5 10-10s-4.5-10-10-10H74c-5.5 0-10 4.5-10 10s4.5 10 10 10zM950 940H74c-5.5 0-10 4.5-10 10s4.5 10 10 10h876c5.5 0 10-4.5 10-10s-4.5-10-10-10z" fill="" /><path d="M904.5 512m-10 0a10 10 0 1 0 20 0 10 10 0 1 0-20 0Z" fill="" /></svg>