<svg xmlns="http://www.w3.org/2000/svg" version="1.1" xmlns:xlink="http://www.w3.org/1999/xlink" xmlns:svgjs="http://svgjs.dev/svgjs" viewBox="0 0 1422 800"><defs><linearGradient x1="50%" y1="0%" x2="50%" y2="100%" id="ssscribble-grad"><stop stop-color="hsl(0, 0%, 0%)" stop-opacity="1" offset="0%"></stop><stop stop-color="hsl(0, 0%, 99%)" stop-opacity="1" offset="100%"></stop></linearGradient></defs><g fill="none" stroke-width="1.5" stroke="url(#ssscribble-grad)" stroke-linecap="round"><path d="M1559.66 398.79C1560.85 426.44 1547.84 455.65 1524.17 486.27 1496.39 516.86 1469.76 548.76 1449.72 581.61 1440.59 614.05 1441.76 646.76 1450.92 678.83 1465.6 709.11 1479.18 737.12 1487.06 761.5 1487.3 782.17 1476.79 797.83 1456.19 808.06 1428.21 815.39 1395.22 819.44 1360.94 822.5 1328.93 829.35 1301.33 841.09 1279.43 860.57 1264.38 889.42 1254.62 926.24 1248.51 968.06 1245.75 1009.49 1242.87 1044.78 1238.1 1068.09 1231.68 1077.43 1221.05 1072.9 1205.96 1059.42 1187.41 1047.48 1164.66 1044.27 1138.54 1056.7 1109.95 1086.49 1079.32 1127.11 1047.56 1167.57 1014.89 1196.07 982.11 1203.77 949.7 1189.88 917.28 1164.98 885.57 1141.86 854.71 1134.73 824.03 1151.41 794.13 1185.85 765.02 1223.48 735.99 1247.63 707.62 1245.87 679.98 1218.92 652.33 1182.42 626.05 1154.61 601.23 1148.75 576.48 1167.27 553.31 1197.53 531.85 1222.44 510.56 1229.38 491.05 1211.64 473.31 1175.51 455.56 1134.73 439.24 1102.97 423.98 1089.11 407.83 1095.05 391.73 1112.36 374.93 1129.49 355.65 1137.44 334.33 1127.9 310.27 1101.06 282.75 1062.33 252.22 1019.49 219.08 980.94 184.29 952.75 149.2 936.96 115.72 931.7 73.22 936.64 30.91 926.3 32.54 895.52 38.03 864.94 44.22 829.07 47.55 790.78 43.48 751.49 31.46 713.66 10.95 678.4 -17.18 645.62 -48.77 615.85 -79.04 588.5 -103.81 563.35 -118.18 539.41 -119.72 515.81 -110.35 493.15 -91.86 469.81 -69.54 445.3 -51.35 420.99 -41.14 395.08 -42.33 367.44 -56.2 339.79 -77.35 311.05 -99.74 281.51 -118.62 252.17 -127.1 222.44 -122.61 192.95 -106.53 164.41 -80.55 137.13 -49.56 112.11 -19.55 89.3 5.55 69.96 22.72 54.82 29.55 37.73 11.58 15.96 7.54 -0.16 12.94 -19.32 26.95 -45.82 48.91 -80.02 76.93 -119.87 109.61 -161.93 144.49 -201.07 179.38 -232.05 212.56 -250.78 242.81 -255.24 269.18 -249.33 291.84 -237.28 311.3 -227.33 327.23 -229.27 341.43 -246.52 354.95 -279.13 367.07 -320.92 380.04 -360.77 394.45 -386.98 409.04 -393.39 425.69 -379.64 444.42 -354.46 463.77 -333.93 485.1 -329.39 508.15 -346.99 531.61 -382.57 556.46 -420.97 582.4 -444.96 608.47 -444.58 635.39 -419.58 663.04 -383.08 690.69 -356.13 718.41 -351.56 746.2 -370.23 774.11 -402.39 802.33 -428.7 831.01 -434.71 860.11 -416.92 890 -380.6 920.81 -340.1 952.24 -310.6 984.69 -300.29 1018.02 -308.53 1051.53 -328.71 1085.28 -346.8 1118.56 -351.94 1150.44 -339.7 1180.31 -309.71 1206.99 -268.98 1230.15 -226.71 1248.64 -191.39 1261.84 -168.09 1273.54 -159.13 1279.56 -169.72 1285.1 -158.44 1295.78 -138.36 1312.56 -108.95 1335.94 -73.19 1365.58 -33.64 1398.74 6.38 1432.15 44.44 1462.51 79.62 1485.74 110.68 1498.83 137.92 1501.92 161.46 1494.82 182.55 1480.41 202.44 1465.03 220.53 1452.24 239.04 1446.83 258.75 1453.01 278.04 1469.63 299.2 1493.97 322.46 1521.83 345.7 1545.79 371.13 1559.66 398.78Q1559.66 398.79 1559.66 398.79" opacity="0.91"></path><path d="M1515.16 446.2C1516.63 472.31 1505.28 498.77 1483.9 525.3 1457.93 551.6 1431.7 577.51 1410.08 602.44 1397.37 626.44 1393.87 648.6 1398.51 668.17 1416.56 693.35 1438.23 725.83 1425.05 736.41 1405.29 745.49 1378.45 756.97 1347.26 773 1314.8 795.71 1283.35 824.87 1255.01 860.09 1231.56 898.93 1213.07 938.26 1199.15 973.58 1186.79 1008.71 1170.7 1008.28 1159.39 992.55 1149.35 992.55 1135.86 1005.83 1119.01 1033.45 1099.89 1071.44 1077.84 1110.92 1053.53 1141.6 1027.65 1156.12 1000.35 1151.11 972.24 1130.62 943.44 1106.91 914.44 1090.86 885.67 1092.39 856.69 1114.72 828.21 1149.86 800.43 1184.2 772.62 1204.19 745.59 1200.41 719.47 1174.42 693.36 1139.86 668.78 1112.14 645.73 1103.17 622.65 1116.65 601.02 1143.51 580.75 1169.87 560.28 1183.96 540.89 1176.63 522.32 1149.46 503.05 1111.6 483.97 1074.51 464.6 1048.75 443.66 1040.5 421.58 1047.58 397.83 1062.91 371.79 1078.98 343.67 1085.37 313.45 1077.18 281.58 1054.59 248.61 1020.12 215.58 980.13 183.75 941.04 154.44 908.37 129.3 884.97 94.07 868.81 97.43 841.13 94.67 807.84 83.25 779.03 64.58 746.77 39.51 712.87 9.86 677.74 -20.21 643.09 -46.46 609.68 -65.83 576.88 -74.8 545.71 -72.17 516.09 -60.63 487.15 -42.08 459.3 -21.28 432.25 -5.06 405.42 3.63 378.99 2.16 352.88 -10.64 326.76 -30.14 301.59 -51.3 277.55 -70.26 253.74 -80.76 231.47 -80.08 211.17 -68.81 191.54 -47.42 174.33 -19.5 159.76 9.97 145.79 37.47 134.06 59.59 123.94 73.51 112.59 79.75 100.72 79.65 86.66 74.08 67.96 67.42 44.56 62.7 15.55 60.97 -18.58 65.6 -56.57 77.28 -95.85 95.1 -132.62 119.21 -163.53 148 -184.86 179.69 -195.7 212.83 -195.62 245.77 -187.37 277.36 -178.21 306.77 -172.81 333.6 -177.41 357.45 -196.41 378.83 -228.09 398.29 -267.46 415.45 -306.08 431.76 -334.45 447.91 -345.33 463.03 -338.72 478.9 -318.64 495.89 -295.51 512.69 -283.07 531 -288.21 550.9 -312.37 570.86 -348.81 592.44 -383.36 615.58 -402 638.76 -398.21 663.43 -373.14 689.54 -338.58 715.66 -312.58 742.59 -306.16 770.27 -320.97 798 -350.14 826.54 -377.6 855.82 -389.86 885.17 -381.32 915.23 -352.8 945.81 -314.36 976.19 -279.13 1006.71 -257.11 1036.83 -252.49 1065.94 -264.02 1093.76 -282.23 1119.48 -296.92 1142.89 -301.25 1163.14 -289.23 1179.54 -262.04 1192.95 -224.83 1202.42 -184.35 1208.18 -147.68 1213.97 -111.65 1227.53 -99.09 1244.78 -102.3 1263.94 -100.16 1288.38 -90.46 1317.3 -72.92 1349.21 -48.71 1381.17 -18.57 1410.03 15.22 1433.43 51.4 1448.47 87.78 1453.69 122.97 1450.72 157 1440.22 188.73 1425.47 218.25 1412.29 246.06 1403.37 272.27 1402.17 297.51 1411.56 321.83 1429.75 346.04 1453.87 370.6 1480.19 394.93 1502.34 420.08 1515.16 446.19Q1515.16 446.2 1515.16 446.2" opacity="0.24"></path><path d="M1470.66 434.45C1472.38 459.03 1462.59 482.08 1443.47 503.49 1419.51 524.76 1394.15 544.18 1371.64 561.54 1352.19 586.08 1361.09 625.55 1377.46 642.98 1386.75 656.48 1390.19 671.5 1386.19 689.38 1375.16 711.61 1356.46 738.14 1331.65 769.21 1303.01 803.7 1272.29 840.31 1241.66 876.52 1213.07 909.15 1187.58 935.51 1165.8 952.79 1141.58 960.21 1111.96 940.21 1100.98 940.82 1094.07 956.79 1085.49 984.46 1074.79 1020.36 1063.05 1057.91 1048.78 1088.9 1032.13 1106.04 1014.22 1107.07 994.26 1092.9 972.67 1070.33 950.23 1051.16 926.68 1043.42 902.43 1052.9 877.79 1079.32 852.85 1113.88 827.87 1144.45 802.81 1160.41 777.91 1154.88 753.34 1129.92 728.76 1097.33 705.09 1069.96 682.28 1058.34 659.38 1066.91 637.16 1089.59 615.44 1115.61 593.35 1134.76 571.37 1136.88 549.22 1119.99 526.22 1089.01 502.53 1051.96 477.85 1018.79 451.91 997.63 424.65 991.09 396.03 997.05 366.37 1011.42 335.78 1025.2 304.81 1031.57 274.31 1027.39 244.93 1009.91 217.84 981.33 193.74 945.68 173.77 907.74 158.88 872.25 145.99 814.01 147.51 788.05 134.07 776.8 116.14 764.67 92.67 747.81 65.37 726.95 36.41 703.16 9.56 676.77 -11.7 648.89 -25.52 619.72 -29.5 590.29 -23.42 561.29 -10.4 531.99 7.73 503.61 26.82 476.41 41.08 449.19 48.38 423.22 46.66 398.64 34.87 374.07 17.01 351.46 -2.79 330.81 -21.5 310.14 -33.51 291.36 -36.12 274.3 -29.41 256.95 -12.86 240.85 11.04 225.44 38.44 208.72 66.41 191.47 91.62 172.67 111 150.94 123.91 126.27 130.44 98.05 130.45 66.57 126.97 32.15 122.4 -3.96 117.6 -39.38 116.17 -72.32 119.56 -99.94 127.53 -120.42 141.58 -132.12 161.12 -134.66 184.92 -131.38 212.43 -124.12 242.25 -117.48 273.24 -117.92 304.36 -127.81 334.69 -149.21 363.76 -181.18 391.12 -218.77 416.69 -255.06 440.35 -282.94 462.49 -296.44 483.5 -293.29 503.07 -278.15 522.21 -257.09 541.35 -239.98 559.76 -236.96 578.72 -250.81 598.52 -279.44 618.07 -314.94 638.73 -344.85 660.64 -358.29 682.51 -351.54 705.71 -326.67 730.29 -294.08 754.87 -269.11 780.23 -261.09 806.24 -272.18 832.2 -297.88 858.7 -325.21 885.5 -342.16 912.06 -342.16 938.62 -322.68 964.8 -289.64 990.26 -253.2 1014.77 -223.03 1037.78 -206.04 1069.06 -210.65 1116.14 -247.66 1130.87 -239.98 1138.41 -217.65 1143.87 -184.97 1148.04 -147.38 1153.4 -110.24 1159.63 -78.26 1168.04 -54.12 1180.71 -39.19 1197.34 -31.8 1218.38 -29.26 1244.01 -30.31 1272.81 -30.34 1303.2 -26.95 1333.36 -20.14 1360.65 -7.5 1382.57 10.61 1397.97 33.09 1405.08 59.6 1403.72 88.7 1396.52 119.8 1384.55 151.56 1371.03 183.03 1360.98 214.68 1356.17 245.26 1358.93 274.55 1371.03 303.53 1390.27 331.29 1413.84 357.88 1438.51 384.34 1458.87 409.87 1470.66 434.44Q1470.66 434.45 1470.66 434.45" opacity="0.62"></path><path d="M1426.16 378.59C1428.09 401.63 1419.76 422.99 1402.86 442.73 1381.06 462.57 1356.98 481.02 1334.25 498.34 1316.62 516.19 1305.22 533.54 1300.67 550.99 1303.46 569.89 1310.79 589.94 1320.21 611.89 1330.44 636.33 1337.55 663.4 1339.57 693.24 1336.34 725 1326.15 758.32 1309.48 791.83 1287.81 823.4 1261.9 851.54 1233.52 874.02 1204.43 889.9 1175.9 897.99 1149.1 898.42 1125.03 894.5 1103.88 887.71 1085.59 881.94 1070.58 882.64 1057.73 891.6 1046.34 910.67 1036.88 939.42 1027.6 974.04 1017.86 1009.08 1003.22 1047.46 965.93 1040.97 942.67 1011.27 926.1 999.05 907.98 999.86 888.54 1016.01 868.8 1044.87 847.99 1077.68 826.32 1104.14 804.56 1116.3 782.1 1109.28 759.06 1085.42 736.02 1054.83 712.94 1028.06 689.82 1014.26 666.61 1018.22 643.2 1036.2 619.49 1060.3 595.48 1082.26 570.91 1092.05 545.68 1085.46 519.95 1063.96 493.4 1031.8 466.05 996.84 438.33 967.06 410.03 947.65 381.51 940.47 353.43 945.18 325.98 956.32 299.93 968.05 275.81 976.49 254.36 975.94 236.4 964.75 221.73 943.86 211.24 914.67 205.11 880.76 201.71 845.41 201.49 812 203.37 782.84 204.67 750.32 189.09 716.74 165.69 707.67 143.12 702.56 117.24 695.51 90.12 685.88 63.81 674.89 41.48 660.89 25.69 644.23 17.24 626.15 17.63 606.04 26.38 584.5 40.21 562.24 57.51 539.24 74.76 515.98 87.09 492.54 93.09 469.18 91.16 446.14 80.37 423.1 64.12 400.92 45.75 379.48 27.6 357.87 14.57 336.64 9.24 315.45 11.82 293.53 23.51 270.96 42.83 247.24 66.86 222.1 93.49 195.18 119.77 166.24 142.72 135.94 161.08 104.06 174.03 71.34 180.69 39.42 182.74 9 181.7 -18.1 176.78 -59 213.53 -59.29 245.14 -65.39 270.14 -81.4 297.3 -106.5 325.63 -138.94 354.58 -174.66 383.42 -208.12 411.61 -233.38 439.1 -246.77 465.52 -246.13 490.82 -233.24 515.11 -215.17 538.49 -198.01 561.16 -189.51 583.1 -195.92 604.73 -216.7 626.31 -247.56 647.53 -280.55 669.02 -305.31 690.93 -313.83 712.75 -304.6 735.17 -280.17 758.21 -249.58 781.25 -225.72 804.37 -216.36 827.43 -223.95 850.39 -245.85 873.12 -271.88 895.36 -291.85 917.24 -299.11 938.29 -288.92 958.15 -263.7 977.28 -230.34 994.83 -196.67 1010.47 -170.36 1046.45 -170.88 1082.81 -183.06 1094.33 -148.21 1105 -115.23 1118.02 -79.68 1134.11 -45.57 1154.14 -15.79 1177.48 7.74 1203.69 24.83 1232.05 35.32 1260.98 41.47 1288.7 45.41 1323.88 49.12 1355.72 70.81 1349.87 92.24 1340.48 110.22 1328.85 131.09 1317.82 153.99 1311.5 178.35 1310.81 203.68 1317.11 229.29 1331.34 255.41 1351.14 281.19 1373.85 306.22 1396.77 331.36 1415.36 355.54 1426.16 378.58Q1426.16 378.59 1426.16 378.59" opacity="0.51"></path><path d="M1381.66 350.13C1383.75 371.64 1376.79 393.02 1362.05 414.34 1342.5 435.83 1320.06 457.57 1297.75 479.82 1278.84 502.65 1264.61 526.47 1256.04 551.56 1254.17 577.55 1257.21 605.02 1263.57 633.87 1272.55 663.11 1280.79 692.95 1286.36 722.48 1288.9 750.3 1286.08 775.76 1277.59 797.4 1264.24 814.58 1245.78 826.25 1223.32 831.91 1198.2 833.41 1171.35 830.79 1144 826.05 1117.18 823.39 1091.61 824.09 1067.81 830.9 1046.27 846.2 1026.84 869.4 1009.32 899.17 994.03 932.38 980.02 964.56 966.81 990.72 949 1009.45 912.65 979.43 892.45 955.53 878.66 951.5 863.57 960.22 847.15 981.35 830.66 1010.97 812.85 1041.07 793.78 1063.23 774.67 1071.85 754.35 1063.6 732.85 1040.92 711.34 1012.35 689.16 986.43 666.38 970.94 643.57 970.69 620.1 983.72 596.03 1004.61 571.9 1027.18 547.16 1042.34 521.93 1044.86 496.75 1033.82 471.27 1010.12 445.78 978.81 420.8 946.32 396.33 918.26 372.89 898.75 350.79 890.19 330.52 891.06 312.67 898.18 290.76 913.24 266.29 910.3 262.94 883.3 262.1 856.53 262.12 825.64 261.84 793.29 258.92 761.28 253.43 731.67 244.38 705.47 230.49 683.17 212.46 664.65 190.74 649.21 166 636.96 140.23 626.21 115.49 615.94 84.84 601.88 64.47 567.62 77.06 545.99 91.08 530.69 107.19 513.64 122.49 494.99 132.97 476.23 137.75 456.06 135.66 434.56 125.83 413.05 111.16 390.72 94.31 367.59 76.99 344.36 63.44 320.14 55.98 294.88 54.97 269.37 62.06 242.71 76.52 215.05 96.28 187.37 120.03 159.13 145.4 130.94 169.74 103.95 191.62 78.36 209.74 55.3 231.36 14.11 232.24 2.97 235.85 2.25 241.67 -5.28 251.36 -19.42 264.76 -40.97 281.01 -69.31 300.39 -101.86 322.24 -135 345.88 -164.51 370.93 -186.22 396.75 -196.86 423.13 -196.53 449.53 -185.99 475.57 -169.26 501.46 -153.72 526.74 -144.01 551.32 -145.11 575.57 -159.76 599.19 -185.19 622.23 -216.05 645.04 -245.25 667.45 -264.61 689.5 -268.62 711.49 -257.39 733.24 -233.65 754.75 -205.08 776.25 -182.39 797 -171.97 816.9 -176.32 836.73 -194.23 855.6 -218 873.34 -239.32 890.86 -252.15 907.08 -250.61 921.85 -234.45 936.28 -207.58 949.2 -175.25 960.58 -144.28 990.78 -115.81 1036.5 -141.03 1057.33 -130.57 1074.71 -111.98 1094.55 -85.84 1116.9 -55 1141.69 -22.08 1168.11 10.07 1195.23 39.33 1222.05 64.44 1247.14 84.79 1268.98 100.75 1298.62 127.12 1279.01 162.64 1266.51 181.03 1264.18 194.96 1267.36 210.97 1276.66 228.7 1292.42 247 1312.3 266.54 1333.87 286.94 1354.97 307.5 1371.82 328.62 1381.66 350.12Q1381.66 350.13 1381.66 350.13" opacity="0.19"></path><path d="M1337.16 385.51C1339.37 405.48 1333.67 426.53 1321.01 448.57 1303.76 470.64 1283.25 493.74 1261.91 517.77 1242.55 541.79 1226.35 566.61 1214.51 591.91 1208.34 616.75 1206.86 641.47 1209.2 665.4 1227.17 721.91 1224.17 762.46 1204.31 761.25 1186.22 760.35 1164.95 760.44 1141.47 763.54 1116.7 772.27 1091.29 786.8 1066.03 807.63 1041.41 834.16 1017.84 864.33 995.58 895.25 974.8 923.52 955.4 945.66 937.19 958.64 920.37 961.98 904.35 955.45 888.8 941.46 866.82 918.71 822.47 916.59 798.98 948.38 783.2 977.22 766.46 1003.82 748.68 1021.67 730.93 1027.05 712.08 1017.86 692.11 996.42 672.14 969.89 651.53 945.03 630.38 928.35 609.27 924.4 587.69 932.5 565.8 949.26 544.07 970.44 522.21 988.44 500.49 997.94 479.21 996.76 458.4 983.26 438.44 959.76 419.39 930.52 401.67 899.98 385.69 872.71 338.38 852.88 318.83 837.26 311.51 806.13 302.63 779.8 290.72 751.15 275.47 721.84 256.52 692.66 234.88 664.97 211.44 639.35 187.14 615.83 163.79 594.64 143.13 575.41 120.38 550.07 113.43 504.79 128.42 482.24 142.05 467.37 156.68 451.46 169.99 434.29 178.7 417.19 182.37 398.69 180.16 378.72 171.26 358.75 158.13 337.79 142.85 316 126.59 294.27 112.97 271.86 103.99 249.07 100.04 226.65 102.99 204.28 112.66 182.49 127.64 161.75 147.39 142.37 170.14 125.05 193.71 109.67 216.84 97.13 238.08 87.86 276.17 75.78 292.72 59.03 293.42 38.61 294.72 17.35 298.35 -8.88 304.62 -38.71 312.78 -69.67 323.88 -98.9 337.66 -123.05 353.35 -139.81 371.26 -147.15 390.88 -144.64 411.76 -135.18 433.72 -120.91 456.29 -106.31 479.43 -97.45 502.73 -96.94 525.89 -107.02 549.2 -127.79 572.16 -155.32 594.63 -184.21 617.09 -208.68 639.01 -222.66 660.29 -222.67 681.57 -209.94 702.24 -187.12 722.21 -160.58 742.17 -139.14 760.97 -127.91 778.59 -129.34 796.2 -143.24 812.6 -163.96 827.8 -185.1 850.02 -204.42 889.1 -168.5 906.65 -124.62 924.58 -84.58 962.5 -55.27 984.55 -64.14 1001.54 -74.26 1020.17 -82.2 1040.58 -85.16 1062.88 -82.41 1086.67 -72.01 1111.54 -54.58 1136.93 -31.51 1162.02 -4.17 1185.79 25.28 1207.51 55.43 1226.02 84.43 1240.29 111.18 1250.42 135.21 1255.47 156.13 1255.44 174.23 1248.59 196.12 1224.74 231.09 1217.65 247.85 1219.24 258.78 1225.83 270.95 1237.48 284.59 1254.17 298.22 1273.66 313.44 1293.87 330.26 1313.1 347.12 1328.26 365.54 1337.16 385.5Q1337.16 385.51 1337.16 385.51" opacity="0.55"></path><path d="M1292.66 439.44C1294.95 457.87 1290.41 476.85 1279.72 496.21 1264.77 515.48 1246.41 534.93 1226.53 554.25 1207.46 573.15 1190.21 591.48 1176.01 608.79 1170.53 667.22 1181.1 690.44 1172.24 695.98 1162.06 703.99 1148.34 715.75 1131.62 732.01 1112.67 753.09 1091.73 778.14 1069.5 805.96 1046.47 834.54 1023.12 861.63 999.92 884.56 977.04 901.41 954.81 910.34 933.37 910.58 912.71 904.06 892.87 891.9 873.78 877.31 855.43 865.43 837.58 858.69 820.09 860.06 803.07 871.45 786.13 891.21 769.1 916.48 752.29 943.19 735.19 965.77 717.71 979.41 700.28 981.92 682.35 972.04 663.92 951.92 645.49 927.44 626.98 903.85 608.51 886.47 590.09 879.43 571.81 882.86 553.86 894.93 536.12 913.12 518.92 931.47 502.49 945.28 486.54 952 471.65 948.5 458.07 934.95 445.21 913.52 433.9 886.69 424.3 858.16 403.71 801.8 383.82 791.31 376.42 797.7 364.34 797.75 324.95 768.08 297 739.67 275.56 716.79 253.11 692.07 230.7 666.54 209.16 640.41 189.98 614.74 174.46 589.99 162.94 565.84 156.67 542.92 156.03 521.21 159.83 500.24 168.27 480.21 180.23 460.9 192.99 442.02 205.93 423.49 217.23 405.12 224.28 386.88 226.95 368.55 224.66 350.12 216.66 331.69 205.01 313.58 191.33 295.93 176.34 278.39 163.05 261.54 153.16 245.66 146.68 223.14 169.32 186.97 195.7 174.27 216.64 167.07 238.78 161.6 260.77 157.45 290.37 150.4 332.42 128.82 344.32 109.06 348.64 90.54 351.6 68.21 353.9 42.52 355.15 14.7 357.02 -13.76 360.03 -40.73 378.21 -83.12 429.52 -62.94 453.81 -49.12 471.23 -49.07 489.54 -57.56 508.42 -74.69 527.72 -98.9 547.28 -126.05 566.88 -151.35 586.63 -170.54 606.23 -179.4 625.52 -176 644.84 -162.28 663.77 -140.56 682.21 -116.08 700.64 -95.95 718.14 -84.2 734.72 -83.07 751.34 -93.05 767.11 -110.21 782.12 -129.8 804.58 -153.44 847.79 -141.52 869.53 -106.75 884.86 -78.66 900.66 -51.47 917.19 -28.51 934.88 -12.31 953.59 -3.37 973.42 -1.03 994.44 -4.77 1016.5 -11.34 1039.38 -18.15 1062.74 -24.2 1086.18 -26.25 1109.1 -23.17 1130.95 -15.28 1151 -1.72 1168.45 16.63 1183.09 38.74 1194.06 63.62 1200.88 89.92 1204.35 116.99 1203.87 143.59 1199.88 169.02 1194.33 193.29 1187.21 215.82 1179.78 236.66 1174.45 256.02 1171.37 274.06 1171.64 291.19 1176.78 307.32 1186.15 323.14 1199.46 339.01 1216.46 354.44 1235.17 370.37 1253.81 387.01 1271.14 403.54 1284.65 420.99 1292.66 439.43Q1292.66 439.44 1292.66 439.44" opacity="0.08"></path><path d="M1248.16 442.86C1247.78 476.65 1226.02 507.08 1191.36 533.14 1156.42 558.12 1128.48 577.22 1112.56 590.05 1111.37 602.93 1117.5 613.41 1124.1 626.56 1129 650.17 1123.68 684.96 1107.03 731.51 1081.8 783.13 1047.76 829.19 1008.75 855.69 967.11 858.53 925.05 839.86 884.42 816.33 844.72 813.42 806.91 838.86 770.87 884.97 735.43 927.31 700.81 937.4 667.01 907.42 633.22 863.5 601.85 836.51 573.57 842.25 545.87 873.99 522.21 900.98 503.35 900.9 485.41 871.19 471.83 821.33 461.38 771.92 448.31 738.66 433.83 725.27 414.78 724.98 387.13 732.04 352.38 732.06 312.3 719.89 270.51 697.46 234.07 663.85 210.5 624.35 201.64 581.1 210.35 537.9 232.25 497.25 253.87 456.64 268.78 419.17 269.16 385.38 250.8 351.58 225.11 323.07 203.31 299.94 191.38 276.86 198.65 258.58 223.72 243.28 259.58 224.22 300.68 202.18 339.47 172.52 370.12 132.62 392.25 84.08 407.37 32.73 418.69 -24.6 449.88 -15.88 479.41 -1.15 503.19 -25.84 531.4 -72.05 562.46 -116.84 594.27 -135.63 627.54 -115.5 661.33 -71.58 695.13 -41.6 727.84 -44.82 759.76 -74.12 792.43 -107.2 825.7 -113.41 860.48 -85.73 897.49 -37.43 937.19 11.53 979.12 43.89 1021.66 52.57 1063.15 46.58 1099.63 39.25 1128.8 36.99 1146.75 50.71 1151.28 79.19 1147.68 118.12 1136.89 163.29 1125.8 208.97 1125.49 254.7 1137.45 297.08 1162.42 335.83 1197.26 373.5 1229.8 409.06 1248.16 442.85Q1248.16 442.86 1248.16 442.86" opacity="0.48"></path><path d="M1203.66 391.4C1204.15 422.12 1186.3 448.01 1156.18 469.42 1123.36 491.36 1093.48 510.25 1071.83 528.25 1062.33 550.38 1061.13 576.37 1064.04 609.17 1070.08 649.27 1071.41 695.01 1065.37 740.95 1053.67 779.3 1033.35 802.62 1006.37 805.13 975.19 793.35 940.56 774.11 904.8 762.81 868.11 774.92 831.99 809.1 797.44 853.15 762.92 887.19 730.05 891.54 699.33 862.92 668.61 822.63 641.49 794.06 618.07 791.75 594.69 815.18 574.92 843.2 558.37 856.12 540.89 846.2 524.93 811.77 508.77 765.27 488.39 720.24 464.61 686.47 436.04 666.65 401.82 660.7 364.06 660.07 326.03 657.83 291.14 653.92 264.79 641.52 251.78 621.25 250.91 596.57 263.3 566.96 284.26 535.32 302.53 502.51 314.15 470.07 313.66 439.35 297.6 408.62 275.01 381.08 254.27 355.96 239.58 329.66 239.82 303.39 255.58 274.83 282.55 241.86 318.13 203.67 356.23 160.23 391.53 115.12 421.86 71.65 446.29 37.34 470.42 15.56 506.07 45.22 528.37 36.07 544.85 0.64 565.5 -44.86 589.93 -80.15 614.74 -89.7 642.73 -67.36 673.45 -27.08 704.17 1.54 736.17 3.42 769.29 -18.75 802.8 -50.94 838.03 -67.64 874.8 -57.24 911.98 -23.43 950.09 23.35 987.4 67.13 1022.22 96.61 1052.65 109.71 1075.62 111.63 1094.5 105.13 1084.12 138.41 1075.65 181.82 1082.4 217.06 1099.64 254.05 1126.19 290.05 1158.78 326.57 1187.6 360.67 1203.66 391.39Q1203.66 391.4 1203.66 391.4" opacity="0.86"></path><path d="M1159.16 350.95C1160.35 378.6 1146.15 405 1120.72 430.72 1091.18 457.49 1061.44 485.52 1036.31 516.24 1019.96 549.92 1010.96 587.52 1007.43 628.03 1009.59 667.93 1011.42 704.68 1010.12 732.5 1002.29 749.53 951.78 720.28 913.45 719.46 885.19 743.61 855.62 781.48 826.07 820.32 796.18 845.85 767.05 845.37 739.4 818.42 711.75 781.92 686.89 752.9 664.64 743.84 642.04 757.89 621.31 782.04 601.66 801.43 580.32 807.7 558.31 792.6 534.47 760.23 507.15 718.8 476.81 676.7 443.72 641 408.79 615.22 374.17 598.54 343.23 587.51 310.07 578.6 310.12 545.87 336 517.03 350.75 495.52 359.35 470.58 358.16 442.93 344.29 415.28 324.84 386.23 305.83 355.59 289.85 324.21 284.79 290.08 292.25 253.16 309.7 215.57 336.99 176.69 369.91 139.66 404.27 108.08 437.74 85.06 468.11 74.61 493.81 74.07 515.75 83.38 534.98 96.03 550.7 99.61 566.15 89.92 582.68 63.38 598.21 23.73 616.32 -16.15 637.45 -40.87 658.51 -42.49 682.87 -19.08 710.51 17.41 738.16 44.36 767.8 50.45 798.88 35.6 829.89 7.43 862.08 -14.7 894.47 -18.58 925.85 -2.41 955.94 32.18 982.83 74.64 1006.21 114.92 1023.97 146.09 1034.5 166.1 1040.03 176 1028.74 186.24 1030.31 204.45 1043.11 221.64 1063.9 243.91 1090.55 269.29 1120.23 295.7 1145.29 323.29 1159.16 350.94Q1159.16 350.95 1159.16 350.95" opacity="0.90"></path><path d="M1114.66 373.29C1116.38 397.86 1105.5 424.76 1084.78 453.75 1059.35 483.04 1031.58 514.73 1005.42 548.14 984.61 580.98 969.05 613.59 958.53 643.13 949.56 680.58 919.81 666.84 895.6 686.77 876.94 717.8 855.67 754.42 832.74 785.86 809.41 803.21 785.17 798.88 760.59 773.92 736.01 741.33 712.26 712.95 689.24 698.76 665.83 703.56 642.39 720.42 618.46 739.76 593.2 755.31 566.48 756.88 538.11 742.95 508.22 716.79 477.08 681.72 445.95 644.07 416.03 607.84 389.22 576.37 368.13 550.5 349.82 522.1 364.41 478.48 387.24 453.88 398.48 436.82 404.38 416.12 402.66 391.54 390.87 366.97 374.51 339.68 357.75 310.39 341.82 281.39 333.33 251.18 334.18 221.46 342.8 194.1 360.73 170.16 385.53 152.41 414.16 140.41 445.17 136.59 476.13 140.6 505.55 146.05 532.87 151.97 557.87 152.55 580.21 140.89 601.08 117.28 621.29 83.71 640.09 46.36 659.59 15.52 680.39 1.23 700.86 5.92 723.31 29.32 747.89 61.91 772.46 86.88 798 96.19 823.88 88.32 849.43 66.37 874.65 43.74 898.43 30.72 920.81 30.99 940.42 48.65 955.96 79.21 968.84 116.32 976.8 153.97 979.59 187.01 979.91 222.15 978.78 257.31 990.22 270.99 1007.39 280.17 1029.87 293.19 1055.27 310.25 1081.53 327.61 1102.87 348.7 1114.66 373.28Q1114.66 373.29 1114.66 373.29" opacity="0.86"></path><path d="M1070.16 429.82C1072.25 451.33 1064.31 474.63 1048.11 498.99 1027.3 522.9 1002.97 546.89 978.08 569.43 945.83 598.17 904.4 625.84 893.26 622.08 886.65 615.03 867.49 628.29 851.54 662.96 839.53 694.98 824.72 726.3 807.44 749.22 789.95 759.24 770.33 752.1 748.83 729.42 727.32 700.85 704.95 674.08 681.88 656.61 658.61 653.36 634.3 661.37 609.04 675.56 583.36 692.59 556.68 703.61 529.57 704.88 502.79 696.95 476.7 678.39 452.73 652.34 431.43 621.7 414.45 589.29 403.35 557.89 397.03 527.97 397.35 500.88 404.04 476.51 413.17 454.17 425.25 433.23 437.77 412.79 445.67 392.98 449.25 372.48 447.16 350.97 437.33 329.47 423.96 307.98 409.79 287.23 390 258.03 387.39 216.95 407.7 209.57 427.78 207.82 451.99 209.35 478.38 211.81 505.63 209.68 532.96 202.74 559.39 188.28 584.81 164.62 609.04 134.31 632.08 101.52 654.19 71.58 675.75 51.32 697.02 46.26 718 55.43 739.24 77.84 760.74 106.41 782.25 129.09 803 140.59 822.58 138.88 850.64 114.72 894.4 79.65 907.71 94.92 914.43 118.38 917.98 148.75 918.91 181.55 920.7 214.08 922 243.77 924.3 269.55 930.97 291.36 941.08 310.02 955.31 326.93 974.76 341.65 997.09 356.78 1020.13 373.43 1042.6 389.62 1060.32 408.31 1070.16 429.81Q1070.16 429.82 1070.16 429.82" opacity="0.10"></path><path d="M1025.66 448.17C1027.95 466.6 1022.55 483.86 1010.54 499.51 994.48 514.73 974.58 527.59 952.85 537.36 931.5 546.03 910.9 551.12 892.05 552.64 869.13 553.62 836.2 558.68 822.98 573.8 815.39 592.59 806.71 616.81 796.5 644.32 780.63 683.87 738.47 709.49 711.92 684.92 693.49 660.44 673.73 636.16 653 617.29 632.28 608.02 610.67 607.53 588.64 613.83 566.91 626.04 545.23 638.1 524.42 646.52 504.82 651.29 487.16 648.6 472.52 638.78 460.44 623.68 452.46 603.42 449.24 580.17 448.91 554.85 452.97 529.01 460.82 503.96 469.04 478.91 478.44 455.28 487.39 433.43 492.29 411.76 493.95 391.6 491.66 373.17 478.39 346.82 443.98 307.94 432.88 296.1 430.86 286.94 458.48 273.34 484.85 261.18 505.41 246.84 527.61 227.68 550.4 203.72 573.56 176.1 596.52 147.51 618.77 121.79 640.82 101.98 662.12 91.98 682.45 94.14 702.67 105.89 722.11 126.44 740.54 150.92 767.25 177.35 810.63 173.07 826.63 152.27 840.03 134.43 856.72 145.99 862.45 174.84 867.99 199.85 874.35 226.95 882.4 254.06 894.02 280.95 908.23 306.22 924.91 329.5 944.49 351.66 965.05 372.34 984.87 391.88 1003.38 410.99 1017.65 429.73 1025.66 448.16Q1025.66 448.17 1025.66 448.17" opacity="0.23"></path><path d="M981.16 404.84C981.65 435.56 961.2 456.42 928.07 468.26 891.96 481.78 855.83 492.18 823.97 507.54 798.44 537.28 775.29 579.68 751.94 626.05 730.65 661.98 705.12 669.04 674.4 640.42 643.68 600.13 610.67 568.75 578.73 559.02 536.44 579.74 502.67 573.9 518.04 531.36 528.65 496.01 536.65 460.43 536.16 429.71 520.1 398.98 501.31 376.03 487.89 358.15 478.94 336.15 485.04 310.81 504.11 276.52 530.24 232.46 563.69 184.58 598.79 148.99 635.04 136.2 669.97 155.13 700.7 195.42 731.42 224.04 755.02 229.43 772.01 216.01 790.15 192.17 804.65 182.35 818.77 192.87 839.96 217.78 866.45 255.32 897.92 295.04 933.85 336.44 965.1 374.11 981.16 404.83Q981.16 404.84 981.16 404.84" opacity="1.00"></path><path d="M936.66 355.31C938.38 379.88 925.32 400.69 902 419.47 874.39 441.18 843.36 466.08 813.01 496.53 784.85 532.45 758.28 571.05 733.38 603.25 709.83 622.8 685.77 620.88 661.2 595.92 636.62 563.33 613.85 532.92 594.81 514.11 566.56 518.88 580.83 483.38 580.66 448.21 568.87 423.63 555.52 398 544.82 370.62 534.46 340.89 532.91 306.38 540.32 268.82 551.84 232.24 570.61 201.37 593.39 186.09 617.55 186.88 643.12 207.33 667.7 239.92 692.27 264.88 713.53 276.76 731.96 275.22 751.78 261.04 771.36 248.5 792.05 244.8 816.85 246.56 844.47 260.02 872.84 280.89 901.55 304.7 924.87 330.72 936.66 355.3Q936.66 355.31 936.66 355.31" opacity="0.13"></path><path d="M892.16 362.99C894.45 381.42 887.33 402.56 873.08 425.84 855.31 449.99 833.41 477.18 810.21 505.48 786.76 532.61 763.4 556.59 741.51 572 719.97 578.43 699.52 571.54 681.08 551.42 662.65 526.93 647.98 501.27 637.58 479.94 623.22 456.97 627.63 429.67 625.16 404.98 617.16 386.54 608.83 363.94 601.97 338.9 593.84 314.15 590.25 288.2 591.87 264.72 598.88 239.78 636.86 250.84 663.47 284.42 681.9 304.54 700.67 318.9 719.42 325.98 738.86 324.08 759.41 319.65 780.67 316.68 803.21 312.54 826.35 314.11 847.98 321.9 868.36 330.57 884.15 344.55 892.16 362.98Q892.16 362.99 892.16 362.99" opacity="0.09"></path><path d="M847.66 418.05C849.38 442.63 831.95 476.63 805.76 506.88 776.66 528.94 745.42 531.88 720.85 506.92 696.27 474.33 683 439.9 679.9 414.32 673.87 397.8 671.38 379.95 669.66 355.37 654.19 317.47 659.57 289.07 690.82 328.92 715.4 353.88 746.55 370.86 777.75 381.02 808.6 382.98 835.87 393.47 847.66 418.05Q847.66 418.05 847.66 418.05" opacity="0.27"></path></g></svg>