<svg xmlns="http://www.w3.org/2000/svg" version="1.1" xmlns:xlink="http://www.w3.org/1999/xlink" xmlns:svgjs="http://svgjs.dev/svgjs" viewBox="0 0 800 800" opacity="1"><g stroke-width="0.5" stroke="hsla(0, 0%, 27%, 1.00)" fill="none" stroke-linecap="round" transform="matrix(1,0,0,1,0,285.51732063293457)"><path d="M10,10C21.805555555555557,10.208333333333334,40.97222222222223,14.125,66.66666666666667,11C92.36111111111111,7.875,105.55555555555557,-5.833333333333333,133.33333333333334,-5C161.11111111111111,-4.166666666666667,172.22222222222223,14.166666666666666,200,15C227.77777777777777,15.833333333333334,238.8888888888889,-1.8333333333333333,266.6666666666667,-1C294.44444444444446,-0.16666666666666674,305.5555555555556,18.166666666666668,333.33333333333337,19C361.11111111111114,19.833333333333332,372.22222222222223,2.375,400,3C427.77777777777777,3.625,438.8888888888889,20.958333333333332,466.6666666666667,22C494.44444444444446,23.041666666666668,505.5555555555556,7.375,533.3333333333334,8C561.1111111111111,8.625,572.2222222222222,24.375,600,25C627.7777777777778,25.625,638.8888888888889,9.958333333333334,666.6666666666667,11C694.4444444444446,12.041666666666666,707.6388888888889,30.208333333333332,733.3333333333334,30C759.0277777777778,29.791666666666668,778.1944444444445,14.166666666666668,790,10"></path><path d="M10,10C21.805555555555557,10.208333333333334,40.97222222222223,14.125,66.66666666666667,11C92.36111111111111,7.875,105.55555555555557,-5.833333333333333,133.33333333333334,-5C161.11111111111111,-4.166666666666667,172.22222222222223,14.166666666666666,200,15C227.77777777777777,15.833333333333334,238.8888888888889,-1.8333333333333333,266.6666666666667,-1C294.44444444444446,-0.16666666666666674,305.5555555555556,18.166666666666668,333.33333333333337,19C361.11111111111114,19.833333333333332,372.22222222222223,2.375,400,3C427.77777777777777,3.625,438.8888888888889,20.958333333333332,466.6666666666667,22C494.44444444444446,23.041666666666668,505.5555555555556,7.375,533.3333333333334,8C561.1111111111111,8.625,572.2222222222222,24.375,600,25C627.7777777777778,25.625,638.8888888888889,9.958333333333334,666.6666666666667,11C694.4444444444446,12.041666666666666,707.6388888888889,30.208333333333332,733.3333333333334,30C759.0277777777778,29.791666666666668,778.1944444444445,14.166666666666668,790,10" transform="matrix(1,0,0,1,0,204)"></path><path d="M10,10C21.805555555555557,10.208333333333334,40.97222222222223,14.125,66.66666666666667,11C92.36111111111111,7.875,105.55555555555557,-5.833333333333333,133.33333333333334,-5C161.11111111111111,-4.166666666666667,172.22222222222223,14.166666666666666,200,15C227.77777777777777,15.833333333333334,238.8888888888889,-1.8333333333333333,266.6666666666667,-1C294.44444444444446,-0.16666666666666674,305.5555555555556,18.166666666666668,333.33333333333337,19C361.11111111111114,19.833333333333332,372.22222222222223,2.375,400,3C427.77777777777777,3.625,438.8888888888889,20.958333333333332,466.6666666666667,22C494.44444444444446,23.041666666666668,505.5555555555556,7.375,533.3333333333334,8C561.1111111111111,8.625,572.2222222222222,24.375,600,25C627.7777777777778,25.625,638.8888888888889,9.958333333333334,666.6666666666667,11C694.4444444444446,12.041666666666666,707.6388888888889,30.208333333333332,733.3333333333334,30C759.0277777777778,29.791666666666668,778.1944444444445,14.166666666666668,790,10" transform="matrix(1,0,0,1,0,170)"></path><path d="M10,10C21.805555555555557,10.208333333333334,40.97222222222223,14.125,66.66666666666667,11C92.36111111111111,7.875,105.55555555555557,-5.833333333333333,133.33333333333334,-5C161.11111111111111,-4.166666666666667,172.22222222222223,14.166666666666666,200,15C227.77777777777777,15.833333333333334,238.8888888888889,-1.8333333333333333,266.6666666666667,-1C294.44444444444446,-0.16666666666666674,305.5555555555556,18.166666666666668,333.33333333333337,19C361.11111111111114,19.833333333333332,372.22222222222223,2.375,400,3C427.77777777777777,3.625,438.8888888888889,20.958333333333332,466.6666666666667,22C494.44444444444446,23.041666666666668,505.5555555555556,7.375,533.3333333333334,8C561.1111111111111,8.625,572.2222222222222,24.375,600,25C627.7777777777778,25.625,638.8888888888889,9.958333333333334,666.6666666666667,11C694.4444444444446,12.041666666666666,707.6388888888889,30.208333333333332,733.3333333333334,30C759.0277777777778,29.791666666666668,778.1944444444445,14.166666666666668,790,10" transform="matrix(1,0,0,1,0,136)"></path><path d="M10,10C21.805555555555557,10.208333333333334,40.97222222222223,14.125,66.66666666666667,11C92.36111111111111,7.875,105.55555555555557,-5.833333333333333,133.33333333333334,-5C161.11111111111111,-4.166666666666667,172.22222222222223,14.166666666666666,200,15C227.77777777777777,15.833333333333334,238.8888888888889,-1.8333333333333333,266.6666666666667,-1C294.44444444444446,-0.16666666666666674,305.5555555555556,18.166666666666668,333.33333333333337,19C361.11111111111114,19.833333333333332,372.22222222222223,2.375,400,3C427.77777777777777,3.625,438.8888888888889,20.958333333333332,466.6666666666667,22C494.44444444444446,23.041666666666668,505.5555555555556,7.375,533.3333333333334,8C561.1111111111111,8.625,572.2222222222222,24.375,600,25C627.7777777777778,25.625,638.8888888888889,9.958333333333334,666.6666666666667,11C694.4444444444446,12.041666666666666,707.6388888888889,30.208333333333332,733.3333333333334,30C759.0277777777778,29.791666666666668,778.1944444444445,14.166666666666668,790,10" transform="matrix(1,0,0,1,0,102)"></path><path d="M10,10C21.805555555555557,10.208333333333334,40.97222222222223,14.125,66.66666666666667,11C92.36111111111111,7.875,105.55555555555557,-5.833333333333333,133.33333333333334,-5C161.11111111111111,-4.166666666666667,172.22222222222223,14.166666666666666,200,15C227.77777777777777,15.833333333333334,238.8888888888889,-1.8333333333333333,266.6666666666667,-1C294.44444444444446,-0.16666666666666674,305.5555555555556,18.166666666666668,333.33333333333337,19C361.11111111111114,19.833333333333332,372.22222222222223,2.375,400,3C427.77777777777777,3.625,438.8888888888889,20.958333333333332,466.6666666666667,22C494.44444444444446,23.041666666666668,505.5555555555556,7.375,533.3333333333334,8C561.1111111111111,8.625,572.2222222222222,24.375,600,25C627.7777777777778,25.625,638.8888888888889,9.958333333333334,666.6666666666667,11C694.4444444444446,12.041666666666666,707.6388888888889,30.208333333333332,733.3333333333334,30C759.0277777777778,29.791666666666668,778.1944444444445,14.166666666666668,790,10" transform="matrix(1,0,0,1,0,68)"></path><path d="M10,10C21.805555555555557,10.208333333333334,40.97222222222223,14.125,66.66666666666667,11C92.36111111111111,7.875,105.55555555555557,-5.833333333333333,133.33333333333334,-5C161.11111111111111,-4.166666666666667,172.22222222222223,14.166666666666666,200,15C227.77777777777777,15.833333333333334,238.8888888888889,-1.8333333333333333,266.6666666666667,-1C294.44444444444446,-0.16666666666666674,305.5555555555556,18.166666666666668,333.33333333333337,19C361.11111111111114,19.833333333333332,372.22222222222223,2.375,400,3C427.77777777777777,3.625,438.8888888888889,20.958333333333332,466.6666666666667,22C494.44444444444446,23.041666666666668,505.5555555555556,7.375,533.3333333333334,8C561.1111111111111,8.625,572.2222222222222,24.375,600,25C627.7777777777778,25.625,638.8888888888889,9.958333333333334,666.6666666666667,11C694.4444444444446,12.041666666666666,707.6388888888889,30.208333333333332,733.3333333333334,30C759.0277777777778,29.791666666666668,778.1944444444445,14.166666666666668,790,10" transform="matrix(1,0,0,1,0,34)"></path></g></svg>